<svg xmlns="http://www.w3.org/2000/svg" xmlns:xlink="http://www.w3.org/1999/xlink" width="50" height="50" viewBox="0 0 50 50">
  <defs>
    <style>
      .cls-1 {
        clip-path: url(#clip-Artboard_1);
      }

      .cls-2 {
        fill: #e7ecf4;
      }

      .cls-3 {
        fill: #20c5ba;
      }

      .cls-4 {
        fill: none;
        stroke: #fafafa;
        stroke-linecap: round;
        stroke-linejoin: round;
        stroke-width: 2px;
      }
    </style>
    <clipPath id="clip-Artboard_1">
      <rect width="50" height="50"/>
    </clipPath>
  </defs>
  <g id="Artboard_1" data-name="Artboard – 1" class="cls-1">
    <g id="Group_13585" data-name="Group 13585" transform="translate(6 9)">
      <rect id="Rectangle_4620" data-name="Rectangle 4620" class="cls-2" width="48" height="48" rx="12" transform="translate(-5 -8)"/>
      <rect id="Rectangle_4622" data-name="Rectangle 4622" class="cls-3" width="38" height="38" rx="8" transform="translate(0 -3)"/>
      <path id="Path_131045" data-name="Path 131045" class="cls-4" d="M11,4H4A2,2,0,0,0,2,6V20a2,2,0,0,0,2,2H18a2,2,0,0,0,2-2V13" transform="translate(7 4.121)"/>
      <path id="Path_131046" data-name="Path 131046" class="cls-4" d="M18.5,2.5a2.121,2.121,0,0,1,3,3L12,15,8,16l1-4Z" transform="translate(7 4.121)"/>
    </g>
  </g>
</svg>
